<?xml version="1.0" standalone="no"?>
<!DOCTYPE svg PUBLIC "-//W3C//DTD SVG 20010904//EN"
 "http://www.w3.org/TR/2001/REC-SVG-20010904/DTD/svg10.dtd">
<svg version="1.0" xmlns="http://www.w3.org/2000/svg"
 width="1366.000000pt" height="738.000000pt" viewBox="0 0 1366.000000 738.000000"
 preserveAspectRatio="xMidYMid meet">
<metadata>
Created by potrace 1.16, written by Peter Selinger 2001-2019
</metadata>
<g transform="translate(0.000000,738.000000) scale(0.100000,-0.100000)"
fill="#000000" stroke="none">
<path d="M0 7250 l0 -130 6830 0 6830 0 0 130 0 130 -6830 0 -6830 0 0 -130z
m11625 80 c3 -5 17 -10 31 -10 18 0 24 -5 24 -23 0 -13 5 -28 11 -34 7 -7 7
-17 1 -29 -6 -11 -13 -27 -16 -36 -4 -15 -17 -18 -71 -18 -61 0 -65 1 -65 23
0 13 5 28 11 34 8 8 7 16 -2 30 -16 26 -5 53 20 53 11 0 23 5 26 10 3 6 10 10
15 10 5 0 12 -4 15 -10z m-11444 -32 l39 -11 0 -59 0 -58 -80 0 c-64 0 -80 3
-80 15 0 8 7 15 15 15 8 0 15 5 15 11 0 6 -7 9 -15 5 -12 -4 -15 4 -15 39 0
50 20 61 42 25 17 -27 28 -25 28 5 0 29 0 29 51 13z"/>
<path d="M388 6877 c-36 -21 -38 -25 -38 -74 0 -50 1 -53 45 -83 l45 -31 45
31 c44 30 45 33 45 83 0 50 -2 53 -40 75 -48 27 -55 27 -102 -1z"/>
<path d="M6777 6872 l-38 -3 3 -67 3 -67 58 -3 57 -3 0 54 c0 67 -25 94 -83
89z"/>
<path d="M4427 6842 c-29 -30 -36 -79 -15 -100 7 -7 33 -12 58 -12 53 0 70 13
70 51 0 32 -44 89 -69 89 -10 0 -29 -13 -44 -28z"/>
<path d="M8050 6850 c-11 -11 -20 -33 -20 -50 0 -17 9 -39 20 -50 11 -11 33
-20 50 -20 17 0 39 9 50 20 11 11 20 33 20 50 0 17 -9 39 -20 50 -11 11 -33
20 -50 20 -17 0 -39 -9 -50 -20z"/>
<path d="M12820 5510 c-6 -12 -19 -19 -33 -17 -20 2 -22 -2 -22 -53 0 -51 2
-55 22 -53 14 2 24 -4 28 -17 8 -26 41 -26 48 1 4 16 11 19 26 14 26 -8 39 18
21 40 -10 12 -10 18 0 30 18 21 5 48 -19 40 -14 -4 -23 0 -31 15 -14 25 -26
26 -40 0z"/>
<path d="M733 5489 c-29 -11 -43 -39 -43 -88 0 -28 7 -48 20 -61 52 -52 134 7
94 67 -13 21 -22 24 -50 20 -37 -6 -46 10 -19 33 13 11 20 11 40 0 29 -15 43
-7 26 14 -16 19 -42 25 -68 15z"/>
<path d="M892 5492 c-49 -8 -65 -110 -25 -154 40 -44 113 -1 113 66 0 62 -35
97 -88 88z"/>
<path d="M2927 5454 c-4 -4 -7 -32 -7 -61 l0 -54 88 3 87 3 0 55 0 55 -80 3
c-45 1 -84 0 -88 -4z"/>
<path d="M1545 3992 c-49 -10 -73 -66 -54 -122 20 -55 82 -68 124 -25 59 58 8
163 -70 147z"/>
<path d="M8050 3905 l0 -85 39 0 c59 0 91 30 91 86 0 60 -25 84 -85 84 l-45 0
0 -85z"/>
<path d="M13175 3546 c-16 -8 -42 -26 -57 -42 -108 -116 -26 -304 131 -304
159 0 241 188 133 304 -51 54 -140 72 -207 42z"/>
<path d="M9875 2793 c-82 -17 -215 -70 -215 -85 0 -6 87 -161 193 -344 l192
-334 393 0 392 0 0 38 c-1 101 -56 272 -122 373 -180 280 -514 421 -833 352z"/>
</g>
</svg>
